<svg width="150" height="128" viewBox="0 0 150 128" fill="none" xmlns="http://www.w3.org/2000/svg">
<path d="M139.499 73.0644L135.615 57.5268C136.677 57.3012 137.474 56.3591 137.474 55.2302V52.7251C137.474 47.2858 133.049 42.8608 127.61 42.8608H109.917V37.6937C109.917 35.0172 107.739 32.8398 105.063 32.8398H72.1641L92.1562 24.8429C93.3606 24.3613 93.9463 22.9943 93.4646 21.7899C92.983 20.5858 91.6169 19.9996 90.4116 20.4815L74.0423 27.0291C79.0304 23.8287 83.9654 20.3063 85.8442 17.843C89.5019 13.0474 88.5756 6.17029 83.78 2.51257C78.9844 -1.14544 72.1072 -0.218776 68.4495 4.57683C65.777 8.08132 62.2509 17.9283 59.9686 24.8673C57.6864 17.9289 54.1602 8.08132 51.4878 4.57683C47.8304 -0.218776 40.9529 -1.14485 36.1573 2.51257C31.3617 6.16999 30.4356 13.0471 34.0931 17.843C35.9719 20.3066 40.9066 23.8287 45.895 27.0291L29.5257 20.4815C28.3207 19.999 26.9543 20.5855 26.4727 21.7899C25.9907 22.9943 26.5767 24.3613 27.7811 24.8429L47.7732 32.8398H14.8746C12.198 32.8398 10.0207 35.0172 10.0207 37.6937V80.2826C10.0207 81.5796 11.0722 82.6313 12.3694 82.6313C13.6664 82.6313 14.7182 81.5799 14.7182 80.2826V37.6937C14.7182 37.6073 14.7882 37.5373 14.8746 37.5373H105.062C105.149 37.5373 105.219 37.6073 105.219 37.6937V80.2832C105.219 81.5802 106.27 82.6319 107.568 82.6319C108.865 82.6319 109.916 81.5804 109.916 80.2832V77.6207H137.621C137.624 77.6207 137.626 77.6213 137.629 77.6213C137.631 77.6213 137.633 77.621 137.636 77.621C141.045 77.6236 143.94 79.8613 144.933 82.9445H137.63C136.333 82.9445 135.282 83.996 135.282 85.2932V90.3036C135.282 94.3615 138.583 97.6627 142.641 97.6627H145.303V107.997H139.161C137.144 102.172 131.607 97.9756 125.104 97.9756C118.602 97.9756 113.064 102.171 111.047 107.997H109.916V90.3033C109.916 89.0063 108.865 87.9546 107.567 87.9546C106.27 87.9546 105.219 89.006 105.219 90.3033V107.996H56.4893C54.472 102.171 48.9346 97.9753 42.4321 97.9753C35.9297 97.9753 30.392 102.171 28.3749 107.996H14.8746C14.7882 107.996 14.7182 107.926 14.7182 107.84V102.673H24.8956C26.1926 102.673 27.2443 101.621 27.2443 100.324C27.2443 99.0267 26.1929 97.9753 24.8956 97.9753H2.34873C1.05176 97.9753 0 99.0267 0 100.324C0 101.621 1.05146 102.673 2.34873 102.673H10.021V107.84C10.021 110.516 12.1983 112.694 14.8749 112.694H27.5616C27.561 112.746 27.5575 112.798 27.5575 112.85C27.5575 121.052 34.2305 127.725 42.4321 127.725C50.6338 127.725 57.3067 121.052 57.3067 112.85C57.3067 112.797 57.3032 112.746 57.3026 112.694H110.233C110.233 112.746 110.229 112.798 110.229 112.85C110.229 121.052 116.902 127.725 125.104 127.725C133.305 127.725 139.978 121.052 139.978 112.85C139.978 112.797 139.975 112.746 139.974 112.694H147.651C148.948 112.694 150 111.642 150 110.345V85.2929C150 79.1072 145.436 73.9679 139.499 73.0644ZM50.6543 24.4671C41.3897 18.7099 38.6417 16.0612 37.8281 14.9942C35.7413 12.2582 36.2698 8.33445 39.0061 6.24763C40.1341 5.38747 41.4636 4.97175 42.7834 4.97175C44.6648 4.97175 46.5264 5.81726 47.753 7.42566C50.025 10.4046 53.5831 20.4308 55.9321 27.6557C54.3469 26.7223 52.5246 25.6299 50.6543 24.4671ZM64.0058 27.6554C66.3548 20.4308 69.9129 10.4049 72.1846 7.42536C74.2714 4.68933 78.1951 4.16111 80.9311 6.24763C83.6675 8.33445 84.1957 12.2582 82.1092 14.9942C81.2956 16.0609 78.5476 18.7099 69.2836 24.4668C67.4136 25.6293 65.5913 26.722 64.0058 27.6554ZM109.917 47.5577H127.61C130.459 47.5577 132.777 49.8757 132.777 52.7248V52.8812H109.917V47.5577ZM109.917 72.9232V57.5787H130.786L134.622 72.9232H109.917ZM42.4321 123.028C36.8203 123.028 32.2547 118.462 32.2547 112.85C32.2547 107.238 36.8203 102.673 42.4321 102.673C48.0439 102.673 52.6096 107.238 52.6096 112.85C52.6096 118.462 48.0439 123.028 42.4321 123.028ZM125.104 123.028C119.493 123.028 114.927 118.462 114.927 112.85C114.927 107.238 119.493 102.673 125.104 102.673C130.716 102.673 135.282 107.238 135.282 112.85C135.282 118.462 130.716 123.028 125.104 123.028ZM145.303 92.9649H142.641C141.173 92.9649 139.979 91.7708 139.979 90.303V87.6411H145.303V92.9649H145.303Z" fill="#5C3515"/>
</svg>
