<svg width="150" height="106" viewBox="0 0 150 106" fill="none" xmlns="http://www.w3.org/2000/svg">
<path d="M148.223 3.15291C146.798 1.47039 144.705 0.500366 142.5 0.500366H3.75001C1.67754 0.500366 0 2.17791 0 4.25037C0 6.32284 1.67754 8.00038 3.75001 8.00038H44.8975L43.6474 15.5004H26.25C24.1776 15.5004 22.5 17.1779 22.5 19.2504C22.5 21.3229 24.1776 23.0004 26.25 23.0004H42.3976L41.1475 30.5004H11.25C9.17756 30.5004 7.50001 32.178 7.50001 34.2504C7.50001 36.3229 9.17756 38.0004 11.25 38.0004H39.8974L38.6473 45.5005H33.7501C31.6776 45.5005 30.0001 47.178 30.0001 49.2505C30.0001 51.3229 31.6776 53.0005 33.7501 53.0005H37.3975L36.1474 60.5005H18.75C16.6776 60.5005 15 62.178 15 64.2505C15 66.3229 16.6776 68.0005 18.75 68.0005H34.8976L30.1026 96.768C29.7402 98.943 30.3525 101.165 31.7775 102.848C33.2025 104.531 35.2949 105.501 37.5001 105.501H127.5C131.165 105.501 134.295 102.851 134.898 99.2331L149.898 9.2329C150.26 7.0579 149.648 4.83543 148.223 3.15291ZM90.0002 8.00038H105L101.25 30.5004H86.2502L90.0002 8.00038ZM90.0002 98.0005H75.0001L78.7501 75.5005H93.7502L90.0002 98.0005ZM127.5 98.0005H97.6027L101.148 76.733C101.51 74.558 100.898 72.3356 99.4727 70.653C98.0477 68.9705 95.9554 68.0005 93.7502 68.0005H78.7501C75.0851 68.0005 71.955 70.6504 71.3527 74.268L67.5001 98.0005H37.5001L42.5002 68.0005H63.7501C65.8226 68.0005 67.5001 66.3229 67.5001 64.2505C67.5001 62.178 65.8226 60.5005 63.7501 60.5005H43.75L45.0001 53.0005H56.2501C58.3226 53.0005 60.0001 51.3229 60.0001 49.2505C60.0001 47.178 58.3226 45.5005 56.2501 45.5005H46.2502L47.5003 38.0004H63.7501C65.8226 38.0004 67.5001 36.3229 67.5001 34.2504C67.5001 32.178 65.8226 30.5004 63.7501 30.5004H48.7501L50.0002 23.0004H71.2501C73.3226 23.0004 75.0001 21.3229 75.0001 19.2504C75.0001 17.1779 73.3226 15.5004 71.2501 15.5004H51.25L52.5001 8.00038H82.3976L78.8527 29.2679C78.4903 31.4429 79.1026 33.6654 80.5276 35.3479C81.9526 37.0304 84.045 38.0004 86.2502 38.0004H101.25C104.915 38.0004 108.045 35.3505 108.648 31.7329L112.5 8.00038H142.5L127.5 98.0005Z" fill="#E8DCCA"/>
</svg>
