<svg width="140" height="102" viewBox="0 0 140 102" fill="none" xmlns="http://www.w3.org/2000/svg">
<path d="M126.25 0.609985H13.75C6.63438 0.61936 0.86875 6.38499 0.859375 13.5006V88.5006C0.86875 95.6162 6.63438 101.382 13.75 101.391H126.25C133.366 101.382 139.131 95.6162 139.141 88.5006V13.5006C139.131 6.38499 133.366 0.61936 126.25 0.609985ZM132.109 88.5006C132.105 91.735 129.484 94.3553 126.25 94.36H13.75C10.5156 94.3553 7.89531 91.735 7.89062 88.5006V13.5006C7.89531 10.2662 10.5156 7.64592 13.75 7.64124H126.25C129.484 7.64592 132.105 10.2662 132.109 13.5006V88.5006ZM41.875 75.61H23.125C21.1844 75.61 19.6094 77.185 19.6094 79.1256C19.6094 81.0662 21.1844 82.6412 23.125 82.6412H41.875C43.8156 82.6412 45.3906 81.0662 45.3906 79.1256C45.3906 77.185 43.8156 75.61 41.875 75.61ZM88.75 75.61H60.625C58.6844 75.61 57.1094 77.185 57.1094 79.1256C57.1094 81.0662 58.6844 82.6412 60.625 82.6412H88.75C90.6906 82.6412 92.2656 81.0662 92.2656 79.1256C92.2656 77.185 90.6906 75.61 88.75 75.61ZM107.5 56.86H23.125C21.1844 56.86 19.6094 58.435 19.6094 60.3756C19.6094 62.3162 21.1844 63.8912 23.125 63.8912H107.5C109.441 63.8912 111.016 62.3162 111.016 60.3756C111.016 58.435 109.441 56.86 107.5 56.86ZM116.875 19.36H88.75C86.8094 19.36 85.2344 20.935 85.2344 22.8756V41.6256C85.2344 43.5662 86.8094 45.1412 88.75 45.1412H116.875C118.816 45.1412 120.391 43.5662 120.391 41.6256V22.8756C120.391 20.935 118.816 19.36 116.875 19.36ZM113.359 38.11H92.2656V26.3912H113.359V38.11Z" fill="#5C3515"/>
</svg>
